<mxfile host="app.diagrams.net" modified="2020-11-27T16:43:42.137Z" agent="5.0 (Windows)" etag="Gj9yqI4CIZfaEIADp_GT" version="13.10.3" type="github">
  <diagram id="S9MI6s02T1DH01e9y4VJ" name="Page-1">
    <mxGraphModel dx="2306" dy="589" grid="1" gridSize="10" guides="1" tooltips="1" connect="1" arrows="1" fold="1" page="1" pageScale="1" pageWidth="827" pageHeight="1169" math="0" shadow="0">
      <root>
        <mxCell id="0" />
        <mxCell id="1" parent="0" />
        <mxCell id="sm2VLhsxw18HSgWIhHCW-1" value="categories" style="swimlane;fontStyle=0;childLayout=stackLayout;horizontal=1;startSize=26;fillColor=none;horizontalStack=0;resizeParent=1;resizeParentMax=0;resizeLast=0;collapsible=1;marginBottom=0;" parent="1" vertex="1">
          <mxGeometry x="-370" y="825" width="150" height="78" as="geometry">
            <mxRectangle x="420" y="80" width="90" height="26" as="alternateBounds" />
          </mxGeometry>
        </mxCell>
        <mxCell id="sm2VLhsxw18HSgWIhHCW-2" value="no_cat" style="text;strokeColor=none;fillColor=none;align=center;verticalAlign=top;spacingLeft=4;spacingRight=4;overflow=hidden;rotatable=0;points=[[0,0.5],[1,0.5]];portConstraint=eastwest;fontStyle=4" parent="sm2VLhsxw18HSgWIhHCW-1" vertex="1">
          <mxGeometry y="26" width="150" height="26" as="geometry" />
        </mxCell>
        <mxCell id="sm2VLhsxw18HSgWIhHCW-3" value="categorie" style="text;strokeColor=none;fillColor=none;align=center;verticalAlign=top;spacingLeft=4;spacingRight=4;overflow=hidden;rotatable=0;points=[[0,0.5],[1,0.5]];portConstraint=eastwest;" parent="sm2VLhsxw18HSgWIhHCW-1" vertex="1">
          <mxGeometry y="52" width="150" height="26" as="geometry" />
        </mxCell>
        <mxCell id="sm2VLhsxw18HSgWIhHCW-5" value="annee_univ" style="swimlane;fontStyle=0;childLayout=stackLayout;horizontal=1;startSize=26;fillColor=none;horizontalStack=0;resizeParent=1;resizeParentMax=0;resizeLast=0;collapsible=1;marginBottom=0;align=center;" parent="1" vertex="1">
          <mxGeometry x="610" y="759" width="140" height="52" as="geometry" />
        </mxCell>
        <mxCell id="sm2VLhsxw18HSgWIhHCW-6" value="annee" style="text;strokeColor=none;fillColor=none;align=center;verticalAlign=top;spacingLeft=4;spacingRight=4;overflow=hidden;rotatable=0;points=[[0,0.5],[1,0.5]];portConstraint=eastwest;fontStyle=4;strokeWidth=1;horizontal=1;" parent="sm2VLhsxw18HSgWIhHCW-5" vertex="1">
          <mxGeometry y="26" width="140" height="26" as="geometry" />
        </mxCell>
        <mxCell id="sm2VLhsxw18HSgWIhHCW-7" value="ec" style="swimlane;fontStyle=0;childLayout=stackLayout;horizontal=1;startSize=26;fillColor=none;horizontalStack=0;resizeParent=1;resizeParentMax=0;resizeLast=0;collapsible=1;marginBottom=0;strokeWidth=1;fontColor=#000000;align=center;" parent="1" vertex="1">
          <mxGeometry x="-40" y="760" width="140" height="130" as="geometry" />
        </mxCell>
        <mxCell id="sm2VLhsxw18HSgWIhHCW-8" value="code_ec" style="text;strokeColor=none;fillColor=none;align=center;verticalAlign=top;spacingLeft=4;spacingRight=4;overflow=hidden;rotatable=0;points=[[0,0.5],[1,0.5]];portConstraint=eastwest;fontStyle=4" parent="sm2VLhsxw18HSgWIhHCW-7" vertex="1">
          <mxGeometry y="26" width="140" height="26" as="geometry" />
        </mxCell>
        <mxCell id="sm2VLhsxw18HSgWIhHCW-9" value="libelle_ec" style="text;strokeColor=none;fillColor=none;align=center;verticalAlign=top;spacingLeft=4;spacingRight=4;overflow=hidden;rotatable=0;points=[[0,0.5],[1,0.5]];portConstraint=eastwest;fontStyle=0" parent="sm2VLhsxw18HSgWIhHCW-7" vertex="1">
          <mxGeometry y="52" width="140" height="26" as="geometry" />
        </mxCell>
        <mxCell id="sm2VLhsxw18HSgWIhHCW-10" value="nature" style="text;strokeColor=none;fillColor=none;align=center;verticalAlign=top;spacingLeft=4;spacingRight=4;overflow=hidden;rotatable=0;points=[[0,0.5],[1,0.5]];portConstraint=eastwest;" parent="sm2VLhsxw18HSgWIhHCW-7" vertex="1">
          <mxGeometry y="78" width="140" height="26" as="geometry" />
        </mxCell>
        <mxCell id="sm2VLhsxw18HSgWIhHCW-11" value="HCM" style="text;strokeColor=none;fillColor=none;align=center;verticalAlign=top;spacingLeft=4;spacingRight=4;overflow=hidden;rotatable=0;points=[[0,0.5],[1,0.5]];portConstraint=eastwest;" parent="sm2VLhsxw18HSgWIhHCW-7" vertex="1">
          <mxGeometry y="104" width="140" height="26" as="geometry" />
        </mxCell>
        <mxCell id="sm2VLhsxw18HSgWIhHCW-15" value="diplome" style="swimlane;fontStyle=0;childLayout=stackLayout;horizontal=1;startSize=26;fillColor=none;horizontalStack=0;resizeParent=1;resizeParentMax=0;resizeLast=0;collapsible=1;marginBottom=0;strokeWidth=1;fontColor=#000000;align=center;" parent="1" vertex="1">
          <mxGeometry x="600" y="1260" width="140" height="182" as="geometry">
            <mxRectangle x="430" y="670" width="70" height="26" as="alternateBounds" />
          </mxGeometry>
        </mxCell>
        <mxCell id="sm2VLhsxw18HSgWIhHCW-16" value="code_diplome" style="text;strokeColor=none;fillColor=none;align=center;verticalAlign=top;spacingLeft=4;spacingRight=4;overflow=hidden;rotatable=0;points=[[0,0.5],[1,0.5]];portConstraint=eastwest;fontStyle=4" parent="sm2VLhsxw18HSgWIhHCW-15" vertex="1">
          <mxGeometry y="26" width="140" height="26" as="geometry" />
        </mxCell>
        <mxCell id="sm2VLhsxw18HSgWIhHCW-17" value="vdi" style="text;strokeColor=none;fillColor=none;align=center;verticalAlign=top;spacingLeft=4;spacingRight=4;overflow=hidden;rotatable=0;points=[[0,0.5],[1,0.5]];portConstraint=eastwest;fontStyle=4" parent="sm2VLhsxw18HSgWIhHCW-15" vertex="1">
          <mxGeometry y="52" width="140" height="26" as="geometry" />
        </mxCell>
        <mxCell id="sm2VLhsxw18HSgWIhHCW-18" value="libelle_diplome" style="text;strokeColor=none;fillColor=none;align=center;verticalAlign=top;spacingLeft=4;spacingRight=4;overflow=hidden;rotatable=0;points=[[0,0.5],[1,0.5]];portConstraint=eastwest;" parent="sm2VLhsxw18HSgWIhHCW-15" vertex="1">
          <mxGeometry y="78" width="140" height="26" as="geometry" />
        </mxCell>
        <mxCell id="sm2VLhsxw18HSgWIhHCW-19" value="libelle_vdi" style="text;strokeColor=none;fillColor=none;align=center;verticalAlign=top;spacingLeft=4;spacingRight=4;overflow=hidden;rotatable=0;points=[[0,0.5],[1,0.5]];portConstraint=eastwest;" parent="sm2VLhsxw18HSgWIhHCW-15" vertex="1">
          <mxGeometry y="104" width="140" height="26" as="geometry" />
        </mxCell>
        <mxCell id="sm2VLhsxw18HSgWIhHCW-20" value="annee_deb" style="text;strokeColor=none;fillColor=none;align=center;verticalAlign=top;spacingLeft=4;spacingRight=4;overflow=hidden;rotatable=0;points=[[0,0.5],[1,0.5]];portConstraint=eastwest;" parent="sm2VLhsxw18HSgWIhHCW-15" vertex="1">
          <mxGeometry y="130" width="140" height="26" as="geometry" />
        </mxCell>
        <mxCell id="sm2VLhsxw18HSgWIhHCW-21" value="annee_fin" style="text;strokeColor=none;fillColor=none;align=center;verticalAlign=top;spacingLeft=4;spacingRight=4;overflow=hidden;rotatable=0;points=[[0,0.5],[1,0.5]];portConstraint=eastwest;" parent="sm2VLhsxw18HSgWIhHCW-15" vertex="1">
          <mxGeometry y="156" width="140" height="26" as="geometry" />
        </mxCell>
        <mxCell id="sm2VLhsxw18HSgWIhHCW-22" value="enseignant" style="swimlane;fontStyle=0;childLayout=stackLayout;horizontal=1;startSize=26;fillColor=none;horizontalStack=0;resizeParent=1;resizeParentMax=0;resizeLast=0;collapsible=1;marginBottom=0;strokeWidth=1;fontColor=#000000;align=center;" parent="1" vertex="1">
          <mxGeometry x="940" y="280" width="140" height="234" as="geometry" />
        </mxCell>
        <mxCell id="sm2VLhsxw18HSgWIhHCW-23" value="id_ens" style="text;strokeColor=none;fillColor=none;align=center;verticalAlign=top;spacingLeft=4;spacingRight=4;overflow=hidden;rotatable=0;points=[[0,0.5],[1,0.5]];portConstraint=eastwest;fontStyle=4" parent="sm2VLhsxw18HSgWIhHCW-22" vertex="1">
          <mxGeometry y="26" width="140" height="26" as="geometry" />
        </mxCell>
        <mxCell id="sm2VLhsxw18HSgWIhHCW-24" value="nom" style="text;strokeColor=none;fillColor=none;align=center;verticalAlign=top;spacingLeft=4;spacingRight=4;overflow=hidden;rotatable=0;points=[[0,0.5],[1,0.5]];portConstraint=eastwest;fontStyle=0" parent="sm2VLhsxw18HSgWIhHCW-22" vertex="1">
          <mxGeometry y="52" width="140" height="26" as="geometry" />
        </mxCell>
        <mxCell id="sm2VLhsxw18HSgWIhHCW-25" value="prenom" style="text;strokeColor=none;fillColor=none;align=center;verticalAlign=top;spacingLeft=4;spacingRight=4;overflow=hidden;rotatable=0;points=[[0,0.5],[1,0.5]];portConstraint=eastwest;" parent="sm2VLhsxw18HSgWIhHCW-22" vertex="1">
          <mxGeometry y="78" width="140" height="26" as="geometry" />
        </mxCell>
        <mxCell id="sm2VLhsxw18HSgWIhHCW-26" value="fonction" style="text;strokeColor=none;fillColor=none;align=center;verticalAlign=top;spacingLeft=4;spacingRight=4;overflow=hidden;rotatable=0;points=[[0,0.5],[1,0.5]];portConstraint=eastwest;" parent="sm2VLhsxw18HSgWIhHCW-22" vertex="1">
          <mxGeometry y="104" width="140" height="26" as="geometry" />
        </mxCell>
        <mxCell id="sm2VLhsxw18HSgWIhHCW-27" value="HOblig" style="text;strokeColor=none;fillColor=none;align=center;verticalAlign=top;spacingLeft=4;spacingRight=4;overflow=hidden;rotatable=0;points=[[0,0.5],[1,0.5]];portConstraint=eastwest;" parent="sm2VLhsxw18HSgWIhHCW-22" vertex="1">
          <mxGeometry y="130" width="140" height="26" as="geometry" />
        </mxCell>
        <mxCell id="sm2VLhsxw18HSgWIhHCW-28" value="HMax" style="text;strokeColor=none;fillColor=none;align=center;verticalAlign=top;spacingLeft=4;spacingRight=4;overflow=hidden;rotatable=0;points=[[0,0.5],[1,0.5]];portConstraint=eastwest;" parent="sm2VLhsxw18HSgWIhHCW-22" vertex="1">
          <mxGeometry y="156" width="140" height="26" as="geometry" />
        </mxCell>
        <mxCell id="sm2VLhsxw18HSgWIhHCW-29" value="CRCT" style="text;strokeColor=none;fillColor=none;align=center;verticalAlign=top;spacingLeft=4;spacingRight=4;overflow=hidden;rotatable=0;points=[[0,0.5],[1,0.5]];portConstraint=eastwest;" parent="sm2VLhsxw18HSgWIhHCW-22" vertex="1">
          <mxGeometry y="182" width="140" height="26" as="geometry" />
        </mxCell>
        <mxCell id="sm2VLhsxw18HSgWIhHCW-30" value="PES_PEDR" style="text;strokeColor=none;fillColor=none;align=center;verticalAlign=top;spacingLeft=4;spacingRight=4;overflow=hidden;rotatable=0;points=[[0,0.5],[1,0.5]];portConstraint=eastwest;" parent="sm2VLhsxw18HSgWIhHCW-22" vertex="1">
          <mxGeometry y="208" width="140" height="26" as="geometry" />
        </mxCell>
        <mxCell id="sm2VLhsxw18HSgWIhHCW-54" value="semestre" style="swimlane;fontStyle=0;childLayout=stackLayout;horizontal=1;startSize=26;fillColor=none;horizontalStack=0;resizeParent=1;resizeParentMax=0;resizeLast=0;collapsible=1;marginBottom=0;" parent="1" vertex="1">
          <mxGeometry x="1000" y="1370" width="140" height="100" as="geometry" />
        </mxCell>
        <mxCell id="sm2VLhsxw18HSgWIhHCW-55" value="&lt;u&gt;code_sem&lt;/u&gt;" style="text;html=1;strokeColor=none;fillColor=none;align=center;verticalAlign=middle;whiteSpace=wrap;rounded=0;" parent="sm2VLhsxw18HSgWIhHCW-54" vertex="1">
          <mxGeometry y="26" width="140" height="20" as="geometry" />
        </mxCell>
        <mxCell id="sm2VLhsxw18HSgWIhHCW-56" value="libelle_sem&#xa;&#xa;no_sem&#xa;" style="text;strokeColor=none;fillColor=none;align=center;verticalAlign=top;spacingLeft=4;spacingRight=4;overflow=hidden;rotatable=0;points=[[0,0.5],[1,0.5]];portConstraint=eastwest;fontStyle=0" parent="sm2VLhsxw18HSgWIhHCW-54" vertex="1">
          <mxGeometry y="46" width="140" height="54" as="geometry" />
        </mxCell>
        <mxCell id="sm2VLhsxw18HSgWIhHCW-71" value="ue" style="swimlane;fontStyle=0;childLayout=stackLayout;horizontal=1;startSize=26;fillColor=none;horizontalStack=0;resizeParent=1;resizeParentMax=0;resizeLast=0;collapsible=1;marginBottom=0;align=center;" parent="1" vertex="1">
          <mxGeometry x="770" y="1560" width="140" height="130" as="geometry" />
        </mxCell>
        <mxCell id="sm2VLhsxw18HSgWIhHCW-72" value="code_ue" style="text;strokeColor=none;fillColor=none;align=center;verticalAlign=top;spacingLeft=4;spacingRight=4;overflow=hidden;rotatable=0;points=[[0,0.5],[1,0.5]];portConstraint=eastwest;fontStyle=4" parent="sm2VLhsxw18HSgWIhHCW-71" vertex="1">
          <mxGeometry y="26" width="140" height="26" as="geometry" />
        </mxCell>
        <mxCell id="sm2VLhsxw18HSgWIhHCW-73" value="libelle_ue" style="text;strokeColor=none;fillColor=none;align=center;verticalAlign=top;spacingLeft=4;spacingRight=4;overflow=hidden;rotatable=0;points=[[0,0.5],[1,0.5]];portConstraint=eastwest;" parent="sm2VLhsxw18HSgWIhHCW-71" vertex="1">
          <mxGeometry y="52" width="140" height="26" as="geometry" />
        </mxCell>
        <mxCell id="sm2VLhsxw18HSgWIhHCW-74" value="nature" style="text;strokeColor=none;fillColor=none;align=center;verticalAlign=top;spacingLeft=4;spacingRight=4;overflow=hidden;rotatable=0;points=[[0,0.5],[1,0.5]];portConstraint=eastwest;" parent="sm2VLhsxw18HSgWIhHCW-71" vertex="1">
          <mxGeometry y="78" width="140" height="26" as="geometry" />
        </mxCell>
        <mxCell id="sm2VLhsxw18HSgWIhHCW-75" value="ECTS" style="text;strokeColor=none;fillColor=none;align=center;verticalAlign=top;spacingLeft=4;spacingRight=4;overflow=hidden;rotatable=0;points=[[0,0.5],[1,0.5]];portConstraint=eastwest;" parent="sm2VLhsxw18HSgWIhHCW-71" vertex="1">
          <mxGeometry y="104" width="140" height="26" as="geometry" />
        </mxCell>
        <mxCell id="sm2VLhsxw18HSgWIhHCW-77" value="0n" style="text;html=1;align=center;verticalAlign=middle;resizable=0;points=[];autosize=1;" parent="1" vertex="1">
          <mxGeometry x="580" y="760" width="30" height="20" as="geometry" />
        </mxCell>
        <mxCell id="sm2VLhsxw18HSgWIhHCW-91" value="0n" style="text;html=1;strokeColor=none;fillColor=none;align=center;verticalAlign=middle;whiteSpace=wrap;rounded=0;" parent="1" vertex="1">
          <mxGeometry x="-10" y="732" width="40" height="20" as="geometry" />
        </mxCell>
        <mxCell id="sm2VLhsxw18HSgWIhHCW-94" value="0n" style="text;html=1;strokeColor=none;fillColor=none;align=center;verticalAlign=middle;whiteSpace=wrap;rounded=0;" parent="1" vertex="1">
          <mxGeometry x="340" y="400" width="40" height="20" as="geometry" />
        </mxCell>
        <mxCell id="sm2VLhsxw18HSgWIhHCW-96" value="composante" style="swimlane;fontStyle=0;childLayout=stackLayout;horizontal=1;startSize=26;fillColor=none;horizontalStack=0;resizeParent=1;resizeParentMax=0;resizeLast=0;collapsible=1;marginBottom=0;strokeWidth=1;fontColor=#000000;align=center;" parent="1" vertex="1">
          <mxGeometry x="940" y="723" width="140" height="104" as="geometry" />
        </mxCell>
        <mxCell id="sm2VLhsxw18HSgWIhHCW-97" value="id_com" style="text;strokeColor=none;fillColor=none;align=center;verticalAlign=top;spacingLeft=4;spacingRight=4;overflow=hidden;rotatable=0;points=[[0,0.5],[1,0.5]];portConstraint=eastwest;fontStyle=4" parent="sm2VLhsxw18HSgWIhHCW-96" vertex="1">
          <mxGeometry y="26" width="140" height="26" as="geometry" />
        </mxCell>
        <mxCell id="sm2VLhsxw18HSgWIhHCW-98" value="nom_comp" style="text;strokeColor=none;fillColor=none;align=center;verticalAlign=top;spacingLeft=4;spacingRight=4;overflow=hidden;rotatable=0;points=[[0,0.5],[1,0.5]];portConstraint=eastwest;" parent="sm2VLhsxw18HSgWIhHCW-96" vertex="1">
          <mxGeometry y="52" width="140" height="26" as="geometry" />
        </mxCell>
        <mxCell id="sm2VLhsxw18HSgWIhHCW-99" value="lieu_comp" style="text;strokeColor=none;fillColor=none;align=center;verticalAlign=top;spacingLeft=4;spacingRight=4;overflow=hidden;rotatable=0;points=[[0,0.5],[1,0.5]];portConstraint=eastwest;" parent="sm2VLhsxw18HSgWIhHCW-96" vertex="1">
          <mxGeometry y="78" width="140" height="26" as="geometry" />
        </mxCell>
        <mxCell id="sm2VLhsxw18HSgWIhHCW-101" value="" style="endArrow=none;html=1;exitX=0.494;exitY=1.015;exitDx=0;exitDy=0;exitPerimeter=0;" parent="1" source="sm2VLhsxw18HSgWIhHCW-30" edge="1">
          <mxGeometry width="50" height="50" relative="1" as="geometry">
            <mxPoint x="1009" y="520" as="sourcePoint" />
            <mxPoint x="1009.4099999999999" y="723" as="targetPoint" />
          </mxGeometry>
        </mxCell>
        <mxCell id="sm2VLhsxw18HSgWIhHCW-102" value="embauche" style="ellipse;whiteSpace=wrap;html=1;" parent="1" vertex="1">
          <mxGeometry x="950" y="580" width="120" height="80" as="geometry" />
        </mxCell>
        <mxCell id="sm2VLhsxw18HSgWIhHCW-103" value="0n" style="text;html=1;align=center;verticalAlign=middle;resizable=0;points=[];autosize=1;" parent="1" vertex="1">
          <mxGeometry x="1015" y="696" width="30" height="20" as="geometry" />
        </mxCell>
        <mxCell id="sm2VLhsxw18HSgWIhHCW-104" value="11" style="text;html=1;align=center;verticalAlign=middle;resizable=0;points=[];autosize=1;" parent="1" vertex="1">
          <mxGeometry x="1015" y="520" width="30" height="20" as="geometry" />
        </mxCell>
        <mxCell id="sm2VLhsxw18HSgWIhHCW-110" value="" style="endArrow=none;html=1;entryX=0;entryY=0.5;entryDx=0;entryDy=0;" parent="1" source="sm2VLhsxw18HSgWIhHCW-2" target="sm2VLhsxw18HSgWIhHCW-10" edge="1">
          <mxGeometry width="50" height="50" relative="1" as="geometry">
            <mxPoint x="320" y="810" as="sourcePoint" />
            <mxPoint x="370" y="760" as="targetPoint" />
          </mxGeometry>
        </mxCell>
        <mxCell id="sm2VLhsxw18HSgWIhHCW-111" value="" style="ellipse;whiteSpace=wrap;html=1;" parent="1" vertex="1">
          <mxGeometry x="-190" y="825" width="110" height="69" as="geometry" />
        </mxCell>
        <mxCell id="sm2VLhsxw18HSgWIhHCW-112" value="Possède" style="text;html=1;strokeColor=none;fillColor=none;align=center;verticalAlign=middle;whiteSpace=wrap;rounded=0;" parent="1" vertex="1">
          <mxGeometry x="-155" y="838" width="40" height="20" as="geometry" />
        </mxCell>
        <mxCell id="sm2VLhsxw18HSgWIhHCW-120" value="0n" style="text;html=1;align=center;verticalAlign=middle;resizable=0;points=[];autosize=1;" parent="1" vertex="1">
          <mxGeometry x="890" y="739" width="30" height="20" as="geometry" />
        </mxCell>
        <mxCell id="sm2VLhsxw18HSgWIhHCW-122" value="" style="ellipse;whiteSpace=wrap;html=1;" parent="1" vertex="1">
          <mxGeometry x="1000" y="858" width="120" height="80" as="geometry" />
        </mxCell>
        <mxCell id="sm2VLhsxw18HSgWIhHCW-123" value="Text" style="text;html=1;strokeColor=none;fillColor=none;align=center;verticalAlign=middle;whiteSpace=wrap;rounded=0;" parent="1" vertex="1">
          <mxGeometry x="1040" y="888" width="40" height="20" as="geometry" />
        </mxCell>
        <mxCell id="sm2VLhsxw18HSgWIhHCW-126" value="est composé" style="ellipse;whiteSpace=wrap;html=1;" parent="1" vertex="1">
          <mxGeometry x="815" y="1204" width="120" height="56" as="geometry" />
        </mxCell>
        <mxCell id="sm2VLhsxw18HSgWIhHCW-127" value="" style="endArrow=none;html=1;exitX=1;exitY=0.5;exitDx=0;exitDy=0;entryX=0.5;entryY=1;entryDx=0;entryDy=0;" parent="1" source="sm2VLhsxw18HSgWIhHCW-74" target="sm2VLhsxw18HSgWIhHCW-54" edge="1">
          <mxGeometry width="50" height="50" relative="1" as="geometry">
            <mxPoint x="869.9999999999998" y="1654.4519999999998" as="sourcePoint" />
            <mxPoint x="1127.0599999999997" y="1531.004" as="targetPoint" />
          </mxGeometry>
        </mxCell>
        <mxCell id="sm2VLhsxw18HSgWIhHCW-128" value="" style="ellipse;whiteSpace=wrap;html=1;" parent="1" vertex="1">
          <mxGeometry x="935" y="1530" width="120" height="56" as="geometry" />
        </mxCell>
        <mxCell id="sm2VLhsxw18HSgWIhHCW-129" value="" style="endArrow=none;html=1;exitX=0.5;exitY=0;exitDx=0;exitDy=0;entryX=0.498;entryY=1.179;entryDx=0;entryDy=0;entryPerimeter=0;" parent="1" source="sm2VLhsxw18HSgWIhHCW-54" target="e3m_MHc_dkyIpt8xtR-b-47" edge="1">
          <mxGeometry width="50" height="50" relative="1" as="geometry">
            <mxPoint x="921.47" y="1358" as="sourcePoint" />
            <mxPoint x="1070" y="1159.328" as="targetPoint" />
          </mxGeometry>
        </mxCell>
        <mxCell id="sm2VLhsxw18HSgWIhHCW-130" value="" style="ellipse;whiteSpace=wrap;html=1;" parent="1" vertex="1">
          <mxGeometry x="1010" y="1258" width="120" height="56" as="geometry" />
        </mxCell>
        <mxCell id="sm2VLhsxw18HSgWIhHCW-131" value="1n" style="text;html=1;align=center;verticalAlign=middle;resizable=0;points=[];autosize=1;" parent="1" vertex="1">
          <mxGeometry x="740" y="1314" width="30" height="20" as="geometry" />
        </mxCell>
        <mxCell id="sm2VLhsxw18HSgWIhHCW-132" value="11" style="text;html=1;align=center;verticalAlign=middle;resizable=0;points=[];autosize=1;" parent="1" vertex="1">
          <mxGeometry x="960" y="1140" width="30" height="20" as="geometry" />
        </mxCell>
        <mxCell id="sm2VLhsxw18HSgWIhHCW-133" value="categories" style="swimlane;fontStyle=0;childLayout=stackLayout;horizontal=1;startSize=26;fillColor=none;horizontalStack=0;resizeParent=1;resizeParentMax=0;resizeLast=0;collapsible=1;marginBottom=0;" parent="1" vertex="1">
          <mxGeometry x="-370" y="825" width="150" height="78" as="geometry">
            <mxRectangle x="420" y="80" width="90" height="26" as="alternateBounds" />
          </mxGeometry>
        </mxCell>
        <mxCell id="sm2VLhsxw18HSgWIhHCW-134" value="no_cat" style="text;strokeColor=none;fillColor=none;align=center;verticalAlign=top;spacingLeft=4;spacingRight=4;overflow=hidden;rotatable=0;points=[[0,0.5],[1,0.5]];portConstraint=eastwest;fontStyle=4" parent="sm2VLhsxw18HSgWIhHCW-133" vertex="1">
          <mxGeometry y="26" width="150" height="26" as="geometry" />
        </mxCell>
        <mxCell id="sm2VLhsxw18HSgWIhHCW-135" value="categorie" style="text;strokeColor=none;fillColor=none;align=center;verticalAlign=top;spacingLeft=4;spacingRight=4;overflow=hidden;rotatable=0;points=[[0,0.5],[1,0.5]];portConstraint=eastwest;" parent="sm2VLhsxw18HSgWIhHCW-133" vertex="1">
          <mxGeometry y="52" width="150" height="26" as="geometry" />
        </mxCell>
        <mxCell id="sm2VLhsxw18HSgWIhHCW-137" value="annee_univ" style="swimlane;fontStyle=0;childLayout=stackLayout;horizontal=1;startSize=26;fillColor=none;horizontalStack=0;resizeParent=1;resizeParentMax=0;resizeLast=0;collapsible=1;marginBottom=0;align=center;" parent="1" vertex="1">
          <mxGeometry x="610" y="759" width="140" height="52" as="geometry" />
        </mxCell>
        <mxCell id="sm2VLhsxw18HSgWIhHCW-138" value="annee" style="text;strokeColor=none;fillColor=none;align=center;verticalAlign=top;spacingLeft=4;spacingRight=4;overflow=hidden;rotatable=0;points=[[0,0.5],[1,0.5]];portConstraint=eastwest;fontStyle=4;strokeWidth=1;horizontal=1;" parent="sm2VLhsxw18HSgWIhHCW-137" vertex="1">
          <mxGeometry y="26" width="140" height="26" as="geometry" />
        </mxCell>
        <mxCell id="sm2VLhsxw18HSgWIhHCW-154" value="enseignant" style="swimlane;fontStyle=0;childLayout=stackLayout;horizontal=1;startSize=26;fillColor=none;horizontalStack=0;resizeParent=1;resizeParentMax=0;resizeLast=0;collapsible=1;marginBottom=0;strokeWidth=1;fontColor=#000000;align=center;" parent="1" vertex="1">
          <mxGeometry x="940" y="280" width="140" height="234" as="geometry" />
        </mxCell>
        <mxCell id="sm2VLhsxw18HSgWIhHCW-155" value="id_ens" style="text;strokeColor=none;fillColor=none;align=center;verticalAlign=top;spacingLeft=4;spacingRight=4;overflow=hidden;rotatable=0;points=[[0,0.5],[1,0.5]];portConstraint=eastwest;fontStyle=4" parent="sm2VLhsxw18HSgWIhHCW-154" vertex="1">
          <mxGeometry y="26" width="140" height="26" as="geometry" />
        </mxCell>
        <mxCell id="sm2VLhsxw18HSgWIhHCW-156" value="nom" style="text;strokeColor=none;fillColor=none;align=center;verticalAlign=top;spacingLeft=4;spacingRight=4;overflow=hidden;rotatable=0;points=[[0,0.5],[1,0.5]];portConstraint=eastwest;fontStyle=0" parent="sm2VLhsxw18HSgWIhHCW-154" vertex="1">
          <mxGeometry y="52" width="140" height="26" as="geometry" />
        </mxCell>
        <mxCell id="sm2VLhsxw18HSgWIhHCW-157" value="prenom" style="text;strokeColor=none;fillColor=none;align=center;verticalAlign=top;spacingLeft=4;spacingRight=4;overflow=hidden;rotatable=0;points=[[0,0.5],[1,0.5]];portConstraint=eastwest;" parent="sm2VLhsxw18HSgWIhHCW-154" vertex="1">
          <mxGeometry y="78" width="140" height="26" as="geometry" />
        </mxCell>
        <mxCell id="sm2VLhsxw18HSgWIhHCW-158" value="fonction" style="text;strokeColor=none;fillColor=none;align=center;verticalAlign=top;spacingLeft=4;spacingRight=4;overflow=hidden;rotatable=0;points=[[0,0.5],[1,0.5]];portConstraint=eastwest;" parent="sm2VLhsxw18HSgWIhHCW-154" vertex="1">
          <mxGeometry y="104" width="140" height="26" as="geometry" />
        </mxCell>
        <mxCell id="sm2VLhsxw18HSgWIhHCW-159" value="HOblig" style="text;strokeColor=none;fillColor=none;align=center;verticalAlign=top;spacingLeft=4;spacingRight=4;overflow=hidden;rotatable=0;points=[[0,0.5],[1,0.5]];portConstraint=eastwest;" parent="sm2VLhsxw18HSgWIhHCW-154" vertex="1">
          <mxGeometry y="130" width="140" height="26" as="geometry" />
        </mxCell>
        <mxCell id="sm2VLhsxw18HSgWIhHCW-160" value="HMax" style="text;strokeColor=none;fillColor=none;align=center;verticalAlign=top;spacingLeft=4;spacingRight=4;overflow=hidden;rotatable=0;points=[[0,0.5],[1,0.5]];portConstraint=eastwest;" parent="sm2VLhsxw18HSgWIhHCW-154" vertex="1">
          <mxGeometry y="156" width="140" height="26" as="geometry" />
        </mxCell>
        <mxCell id="sm2VLhsxw18HSgWIhHCW-161" value="CRCT" style="text;strokeColor=none;fillColor=none;align=center;verticalAlign=top;spacingLeft=4;spacingRight=4;overflow=hidden;rotatable=0;points=[[0,0.5],[1,0.5]];portConstraint=eastwest;" parent="sm2VLhsxw18HSgWIhHCW-154" vertex="1">
          <mxGeometry y="182" width="140" height="26" as="geometry" />
        </mxCell>
        <mxCell id="sm2VLhsxw18HSgWIhHCW-162" value="PES_PEDR" style="text;strokeColor=none;fillColor=none;align=center;verticalAlign=top;spacingLeft=4;spacingRight=4;overflow=hidden;rotatable=0;points=[[0,0.5],[1,0.5]];portConstraint=eastwest;" parent="sm2VLhsxw18HSgWIhHCW-154" vertex="1">
          <mxGeometry y="208" width="140" height="26" as="geometry" />
        </mxCell>
        <mxCell id="sm2VLhsxw18HSgWIhHCW-198" value="enseignement" style="ellipse;whiteSpace=wrap;html=1;" parent="1" vertex="1">
          <mxGeometry x="290" y="740" width="110" height="70" as="geometry" />
        </mxCell>
        <mxCell id="sm2VLhsxw18HSgWIhHCW-209" value="0n" style="text;html=1;align=center;verticalAlign=middle;resizable=0;points=[];autosize=1;" parent="1" vertex="1">
          <mxGeometry x="580" y="760" width="30" height="20" as="geometry" />
        </mxCell>
        <mxCell id="e3m_MHc_dkyIpt8xtR-b-32" style="edgeStyle=orthogonalEdgeStyle;rounded=0;orthogonalLoop=1;jettySize=auto;html=1;exitX=0.5;exitY=1;exitDx=0;exitDy=0;startArrow=none;startFill=0;endArrow=none;endFill=0;" edge="1" parent="1" source="sm2VLhsxw18HSgWIhHCW-219" target="e3m_MHc_dkyIpt8xtR-b-33">
          <mxGeometry relative="1" as="geometry" />
        </mxCell>
        <mxCell id="e3m_MHc_dkyIpt8xtR-b-34" style="edgeStyle=orthogonalEdgeStyle;rounded=0;orthogonalLoop=1;jettySize=auto;html=1;exitX=0.5;exitY=0;exitDx=0;exitDy=0;startArrow=none;startFill=0;endArrow=none;endFill=0;" edge="1" parent="1" source="sm2VLhsxw18HSgWIhHCW-219" target="sm2VLhsxw18HSgWIhHCW-154">
          <mxGeometry relative="1" as="geometry" />
        </mxCell>
        <mxCell id="sm2VLhsxw18HSgWIhHCW-219" value="service" style="ellipse;whiteSpace=wrap;html=1;" parent="1" vertex="1">
          <mxGeometry x="280" y="440" width="120" height="80" as="geometry" />
        </mxCell>
        <mxCell id="sm2VLhsxw18HSgWIhHCW-223" value="0n" style="text;html=1;strokeColor=none;fillColor=none;align=center;verticalAlign=middle;whiteSpace=wrap;rounded=0;" parent="1" vertex="1">
          <mxGeometry x="-10" y="732" width="40" height="20" as="geometry" />
        </mxCell>
        <mxCell id="sm2VLhsxw18HSgWIhHCW-228" value="composante" style="swimlane;fontStyle=0;childLayout=stackLayout;horizontal=1;startSize=26;fillColor=none;horizontalStack=0;resizeParent=1;resizeParentMax=0;resizeLast=0;collapsible=1;marginBottom=0;strokeWidth=1;fontColor=#000000;align=center;" parent="1" vertex="1">
          <mxGeometry x="940" y="723" width="140" height="104" as="geometry" />
        </mxCell>
        <mxCell id="sm2VLhsxw18HSgWIhHCW-229" value="id_com" style="text;strokeColor=none;fillColor=none;align=center;verticalAlign=top;spacingLeft=4;spacingRight=4;overflow=hidden;rotatable=0;points=[[0,0.5],[1,0.5]];portConstraint=eastwest;fontStyle=4" parent="sm2VLhsxw18HSgWIhHCW-228" vertex="1">
          <mxGeometry y="26" width="140" height="26" as="geometry" />
        </mxCell>
        <mxCell id="sm2VLhsxw18HSgWIhHCW-230" value="nom_comp" style="text;strokeColor=none;fillColor=none;align=center;verticalAlign=top;spacingLeft=4;spacingRight=4;overflow=hidden;rotatable=0;points=[[0,0.5],[1,0.5]];portConstraint=eastwest;" parent="sm2VLhsxw18HSgWIhHCW-228" vertex="1">
          <mxGeometry y="52" width="140" height="26" as="geometry" />
        </mxCell>
        <mxCell id="sm2VLhsxw18HSgWIhHCW-231" value="lieu_comp" style="text;strokeColor=none;fillColor=none;align=center;verticalAlign=top;spacingLeft=4;spacingRight=4;overflow=hidden;rotatable=0;points=[[0,0.5],[1,0.5]];portConstraint=eastwest;" parent="sm2VLhsxw18HSgWIhHCW-228" vertex="1">
          <mxGeometry y="78" width="140" height="26" as="geometry" />
        </mxCell>
        <mxCell id="sm2VLhsxw18HSgWIhHCW-233" value="" style="endArrow=none;html=1;exitX=0.494;exitY=1.015;exitDx=0;exitDy=0;exitPerimeter=0;" parent="1" source="sm2VLhsxw18HSgWIhHCW-162" edge="1">
          <mxGeometry width="50" height="50" relative="1" as="geometry">
            <mxPoint x="1009" y="520" as="sourcePoint" />
            <mxPoint x="1009.4099999999999" y="723" as="targetPoint" />
          </mxGeometry>
        </mxCell>
        <mxCell id="sm2VLhsxw18HSgWIhHCW-234" value="rattaché" style="ellipse;whiteSpace=wrap;html=1;" parent="1" vertex="1">
          <mxGeometry x="950" y="580" width="120" height="80" as="geometry" />
        </mxCell>
        <mxCell id="sm2VLhsxw18HSgWIhHCW-235" value="0n" style="text;html=1;align=center;verticalAlign=middle;resizable=0;points=[];autosize=1;" parent="1" vertex="1">
          <mxGeometry x="1015" y="696" width="30" height="20" as="geometry" />
        </mxCell>
        <mxCell id="sm2VLhsxw18HSgWIhHCW-236" value="11" style="text;html=1;align=center;verticalAlign=middle;resizable=0;points=[];autosize=1;" parent="1" vertex="1">
          <mxGeometry x="1015" y="520" width="30" height="20" as="geometry" />
        </mxCell>
        <mxCell id="e3m_MHc_dkyIpt8xtR-b-38" style="edgeStyle=orthogonalEdgeStyle;rounded=0;orthogonalLoop=1;jettySize=auto;html=1;exitX=0.5;exitY=0;exitDx=0;exitDy=0;startArrow=none;startFill=0;endArrow=none;endFill=0;" edge="1" parent="1" source="sm2VLhsxw18HSgWIhHCW-239" target="sm2VLhsxw18HSgWIhHCW-154">
          <mxGeometry relative="1" as="geometry">
            <Array as="points">
              <mxPoint x="840" y="460" />
            </Array>
          </mxGeometry>
        </mxCell>
        <mxCell id="e3m_MHc_dkyIpt8xtR-b-39" style="edgeStyle=orthogonalEdgeStyle;rounded=0;orthogonalLoop=1;jettySize=auto;html=1;exitX=0.5;exitY=1;exitDx=0;exitDy=0;startArrow=none;startFill=0;endArrow=none;endFill=0;" edge="1" parent="1" source="sm2VLhsxw18HSgWIhHCW-239" target="sm2VLhsxw18HSgWIhHCW-228">
          <mxGeometry relative="1" as="geometry">
            <Array as="points">
              <mxPoint x="840" y="775" />
            </Array>
          </mxGeometry>
        </mxCell>
        <mxCell id="e3m_MHc_dkyIpt8xtR-b-40" style="edgeStyle=orthogonalEdgeStyle;rounded=0;orthogonalLoop=1;jettySize=auto;html=1;exitX=0;exitY=0.5;exitDx=0;exitDy=0;startArrow=none;startFill=0;endArrow=none;endFill=0;" edge="1" parent="1" source="sm2VLhsxw18HSgWIhHCW-239" target="sm2VLhsxw18HSgWIhHCW-137">
          <mxGeometry relative="1" as="geometry" />
        </mxCell>
        <mxCell id="sm2VLhsxw18HSgWIhHCW-239" value="horscomp" style="ellipse;whiteSpace=wrap;html=1;" parent="1" vertex="1">
          <mxGeometry x="780" y="585" width="120" height="80" as="geometry" />
        </mxCell>
        <mxCell id="sm2VLhsxw18HSgWIhHCW-242" value="" style="endArrow=none;html=1;entryX=0;entryY=0.5;entryDx=0;entryDy=0;" parent="1" source="sm2VLhsxw18HSgWIhHCW-134" edge="1">
          <mxGeometry width="50" height="50" relative="1" as="geometry">
            <mxPoint x="320" y="810" as="sourcePoint" />
            <mxPoint x="-40" y="851" as="targetPoint" />
          </mxGeometry>
        </mxCell>
        <mxCell id="sm2VLhsxw18HSgWIhHCW-243" value="" style="ellipse;whiteSpace=wrap;html=1;" parent="1" vertex="1">
          <mxGeometry x="-190" y="825" width="110" height="69" as="geometry" />
        </mxCell>
        <mxCell id="sm2VLhsxw18HSgWIhHCW-244" value="Possède" style="text;html=1;strokeColor=none;fillColor=none;align=center;verticalAlign=middle;whiteSpace=wrap;rounded=0;" parent="1" vertex="1">
          <mxGeometry x="-155" y="838" width="40" height="20" as="geometry" />
        </mxCell>
        <mxCell id="sm2VLhsxw18HSgWIhHCW-245" value="11" style="text;html=1;strokeColor=none;fillColor=none;align=center;verticalAlign=middle;whiteSpace=wrap;rounded=0;" parent="1" vertex="1">
          <mxGeometry x="-80" y="825" width="40" height="20" as="geometry" />
        </mxCell>
        <mxCell id="sm2VLhsxw18HSgWIhHCW-246" value="0n" style="text;html=1;strokeColor=none;fillColor=none;align=center;verticalAlign=middle;whiteSpace=wrap;rounded=0;" parent="1" vertex="1">
          <mxGeometry x="-220" y="827" width="40" height="20" as="geometry" />
        </mxCell>
        <mxCell id="sm2VLhsxw18HSgWIhHCW-250" value="" style="endArrow=none;html=1;exitX=0.5;exitY=0;exitDx=0;exitDy=0;" parent="1" source="e3m_MHc_dkyIpt8xtR-b-43" target="sm2VLhsxw18HSgWIhHCW-231" edge="1">
          <mxGeometry width="50" height="50" relative="1" as="geometry">
            <mxPoint x="1105" y="1000" as="sourcePoint" />
            <mxPoint x="610" y="930" as="targetPoint" />
          </mxGeometry>
        </mxCell>
        <mxCell id="sm2VLhsxw18HSgWIhHCW-252" value="0n" style="text;html=1;align=center;verticalAlign=middle;resizable=0;points=[];autosize=1;" parent="1" vertex="1">
          <mxGeometry x="905" y="470" width="30" height="20" as="geometry" />
        </mxCell>
        <mxCell id="sm2VLhsxw18HSgWIhHCW-254" value="" style="ellipse;whiteSpace=wrap;html=1;" parent="1" vertex="1">
          <mxGeometry x="1000" y="858" width="120" height="80" as="geometry" />
        </mxCell>
        <mxCell id="sm2VLhsxw18HSgWIhHCW-255" value="Concerne" style="text;html=1;strokeColor=none;fillColor=none;align=center;verticalAlign=middle;whiteSpace=wrap;rounded=0;" parent="1" vertex="1">
          <mxGeometry x="1040" y="888" width="40" height="20" as="geometry" />
        </mxCell>
        <mxCell id="sm2VLhsxw18HSgWIhHCW-256" value="&#xa;&lt;div&gt;Pas sûr :&lt;br&gt;- card horscomp - comp&lt;/div&gt;&#xa;&#xa;" style="rounded=0;whiteSpace=wrap;html=1;strokeColor=#B20000;fontColor=#ffffff;fillColor=#FF3333;align=left;verticalAlign=top;" parent="1" vertex="1">
          <mxGeometry x="-470" y="177.5" width="400" height="180" as="geometry" />
        </mxCell>
        <mxCell id="sm2VLhsxw18HSgWIhHCW-257" value="" style="endArrow=none;html=1;exitX=0.984;exitY=-0.038;exitDx=0;exitDy=0;exitPerimeter=0;entryX=0.044;entryY=0.998;entryDx=0;entryDy=0;entryPerimeter=0;" parent="1" target="e3m_MHc_dkyIpt8xtR-b-47" edge="1">
          <mxGeometry width="50" height="50" relative="1" as="geometry">
            <mxPoint x="737.7600000000002" y="1311.0120000000002" as="sourcePoint" />
            <mxPoint x="1008.96" y="1156.988" as="targetPoint" />
          </mxGeometry>
        </mxCell>
        <mxCell id="sm2VLhsxw18HSgWIhHCW-258" value="est composé" style="ellipse;whiteSpace=wrap;html=1;" parent="1" vertex="1">
          <mxGeometry x="815" y="1204" width="120" height="56" as="geometry" />
        </mxCell>
        <mxCell id="sm2VLhsxw18HSgWIhHCW-260" value="" style="ellipse;whiteSpace=wrap;html=1;" parent="1" vertex="1">
          <mxGeometry x="935" y="1530" width="120" height="56" as="geometry" />
        </mxCell>
        <mxCell id="sm2VLhsxw18HSgWIhHCW-262" value="" style="ellipse;whiteSpace=wrap;html=1;" parent="1" vertex="1">
          <mxGeometry x="1010" y="1258" width="120" height="56" as="geometry" />
        </mxCell>
        <mxCell id="sm2VLhsxw18HSgWIhHCW-263" value="1n" style="text;html=1;align=center;verticalAlign=middle;resizable=0;points=[];autosize=1;" parent="1" vertex="1">
          <mxGeometry x="740" y="1314" width="30" height="20" as="geometry" />
        </mxCell>
        <mxCell id="sm2VLhsxw18HSgWIhHCW-264" value="11" style="text;html=1;align=center;verticalAlign=middle;resizable=0;points=[];autosize=1;" parent="1" vertex="1">
          <mxGeometry x="960" y="1140" width="30" height="20" as="geometry" />
        </mxCell>
        <mxCell id="sm2VLhsxw18HSgWIhHCW-265" value="est divisé" style="text;html=1;strokeColor=none;fillColor=none;align=center;verticalAlign=middle;whiteSpace=wrap;rounded=0;" parent="1" vertex="1">
          <mxGeometry x="1040" y="1276" width="60" height="20" as="geometry" />
        </mxCell>
        <mxCell id="sm2VLhsxw18HSgWIhHCW-266" value="est décomposer" style="text;html=1;strokeColor=none;fillColor=none;align=center;verticalAlign=middle;whiteSpace=wrap;rounded=0;" parent="1" vertex="1">
          <mxGeometry x="947.5" y="1548" width="95" height="20" as="geometry" />
        </mxCell>
        <mxCell id="sm2VLhsxw18HSgWIhHCW-267" value="1n" style="text;html=1;strokeColor=none;fillColor=none;align=center;verticalAlign=middle;whiteSpace=wrap;rounded=0;" parent="1" vertex="1">
          <mxGeometry x="1070" y="1149" width="40" height="20" as="geometry" />
        </mxCell>
        <mxCell id="sm2VLhsxw18HSgWIhHCW-268" value="11" style="text;html=1;strokeColor=none;fillColor=none;align=center;verticalAlign=middle;whiteSpace=wrap;rounded=0;" parent="1" vertex="1">
          <mxGeometry x="1080" y="1334" width="40" height="20" as="geometry" />
        </mxCell>
        <mxCell id="sm2VLhsxw18HSgWIhHCW-269" value="1n" style="text;html=1;strokeColor=none;fillColor=none;align=center;verticalAlign=middle;whiteSpace=wrap;rounded=0;" parent="1" vertex="1">
          <mxGeometry x="1070" y="1480" width="40" height="20" as="geometry" />
        </mxCell>
        <mxCell id="sm2VLhsxw18HSgWIhHCW-270" value="11" style="text;html=1;strokeColor=none;fillColor=none;align=center;verticalAlign=middle;whiteSpace=wrap;rounded=0;" parent="1" vertex="1">
          <mxGeometry x="920" y="1640" width="40" height="20" as="geometry" />
        </mxCell>
        <mxCell id="JqV3dSxtL43xUey0ZDG3-1" value="1n" style="text;html=1;strokeColor=none;fillColor=none;align=center;verticalAlign=middle;whiteSpace=wrap;rounded=0;" parent="1" vertex="1">
          <mxGeometry x="1030" y="830" width="40" height="20" as="geometry" />
        </mxCell>
        <mxCell id="JqV3dSxtL43xUey0ZDG3-2" value="11" style="text;html=1;strokeColor=none;fillColor=none;align=center;verticalAlign=middle;whiteSpace=wrap;rounded=0;" parent="1" vertex="1">
          <mxGeometry x="1110" y="970" width="40" height="20" as="geometry" />
        </mxCell>
        <mxCell id="e3m_MHc_dkyIpt8xtR-b-6" style="edgeStyle=orthogonalEdgeStyle;rounded=0;orthogonalLoop=1;jettySize=auto;html=1;exitX=0;exitY=0.5;exitDx=0;exitDy=0;startArrow=none;startFill=0;endArrow=none;endFill=0;" edge="1" parent="1" source="e3m_MHc_dkyIpt8xtR-b-4" target="sm2VLhsxw18HSgWIhHCW-7">
          <mxGeometry relative="1" as="geometry">
            <Array as="points">
              <mxPoint x="-40" y="990" />
              <mxPoint x="-40" y="943" />
              <mxPoint y="943" />
            </Array>
          </mxGeometry>
        </mxCell>
        <mxCell id="e3m_MHc_dkyIpt8xtR-b-7" style="edgeStyle=orthogonalEdgeStyle;rounded=0;orthogonalLoop=1;jettySize=auto;html=1;exitX=1;exitY=0.5;exitDx=0;exitDy=0;startArrow=none;startFill=0;endArrow=none;endFill=0;" edge="1" parent="1" source="e3m_MHc_dkyIpt8xtR-b-4" target="sm2VLhsxw18HSgWIhHCW-7">
          <mxGeometry relative="1" as="geometry">
            <Array as="points">
              <mxPoint x="100" y="990" />
              <mxPoint x="100" y="943" />
              <mxPoint x="70" y="943" />
            </Array>
          </mxGeometry>
        </mxCell>
        <mxCell id="e3m_MHc_dkyIpt8xtR-b-4" value="&lt;div&gt;père&lt;/div&gt;" style="ellipse;whiteSpace=wrap;html=1;" vertex="1" parent="1">
          <mxGeometry x="-20" y="960" width="100" height="60" as="geometry" />
        </mxCell>
        <mxCell id="e3m_MHc_dkyIpt8xtR-b-8" value="01" style="text;html=1;align=center;verticalAlign=middle;resizable=0;points=[];autosize=1;" vertex="1" parent="1">
          <mxGeometry x="-30" y="920" width="30" height="20" as="geometry" />
        </mxCell>
        <mxCell id="e3m_MHc_dkyIpt8xtR-b-9" value="0n" style="text;html=1;align=center;verticalAlign=middle;resizable=0;points=[];autosize=1;" vertex="1" parent="1">
          <mxGeometry x="70" y="920" width="30" height="20" as="geometry" />
        </mxCell>
        <mxCell id="e3m_MHc_dkyIpt8xtR-b-10" style="edgeStyle=orthogonalEdgeStyle;rounded=0;orthogonalLoop=1;jettySize=auto;html=1;exitX=0;exitY=0.5;exitDx=0;exitDy=0;startArrow=none;startFill=0;endArrow=none;endFill=0;" edge="1" parent="1" target="sm2VLhsxw18HSgWIhHCW-7">
          <mxGeometry relative="1" as="geometry">
            <mxPoint x="770" y="1599" as="sourcePoint" />
            <Array as="points">
              <mxPoint x="140" y="1599" />
              <mxPoint x="140" y="825" />
            </Array>
          </mxGeometry>
        </mxCell>
        <mxCell id="e3m_MHc_dkyIpt8xtR-b-11" value="11" style="text;html=1;align=center;verticalAlign=middle;resizable=0;points=[];autosize=1;" vertex="1" parent="1">
          <mxGeometry x="105" y="840" width="30" height="20" as="geometry" />
        </mxCell>
        <mxCell id="e3m_MHc_dkyIpt8xtR-b-12" value="1n" style="text;html=1;align=center;verticalAlign=middle;resizable=0;points=[];autosize=1;" vertex="1" parent="1">
          <mxGeometry x="725" y="1570" width="30" height="20" as="geometry" />
        </mxCell>
        <mxCell id="e3m_MHc_dkyIpt8xtR-b-13" value="enseignement" style="swimlane;fontStyle=0;childLayout=stackLayout;horizontal=1;startSize=26;fillColor=none;horizontalStack=0;resizeParent=1;resizeParentMax=0;resizeLast=0;collapsible=1;marginBottom=0;strokeWidth=1;fontColor=#000000;align=center;" vertex="1" parent="1">
          <mxGeometry x="-730" y="1052" width="140" height="390" as="geometry">
            <mxRectangle x="270" y="760" width="110" height="26" as="alternateBounds" />
          </mxGeometry>
        </mxCell>
        <mxCell id="e3m_MHc_dkyIpt8xtR-b-14" value="eff_prev" style="text;strokeColor=none;fillColor=none;align=center;verticalAlign=top;spacingLeft=4;spacingRight=4;overflow=hidden;rotatable=0;points=[[0,0.5],[1,0.5]];portConstraint=eastwest;" vertex="1" parent="e3m_MHc_dkyIpt8xtR-b-13">
          <mxGeometry y="26" width="140" height="26" as="geometry" />
        </mxCell>
        <mxCell id="e3m_MHc_dkyIpt8xtR-b-15" value="eff_reel" style="text;strokeColor=none;fillColor=none;align=center;verticalAlign=top;spacingLeft=4;spacingRight=4;overflow=hidden;rotatable=0;points=[[0,0.5],[1,0.5]];portConstraint=eastwest;" vertex="1" parent="e3m_MHc_dkyIpt8xtR-b-13">
          <mxGeometry y="52" width="140" height="26" as="geometry" />
        </mxCell>
        <mxCell id="e3m_MHc_dkyIpt8xtR-b-16" value="GpCM" style="text;strokeColor=none;fillColor=none;align=center;verticalAlign=top;spacingLeft=4;spacingRight=4;overflow=hidden;rotatable=0;points=[[0,0.5],[1,0.5]];portConstraint=eastwest;" vertex="1" parent="e3m_MHc_dkyIpt8xtR-b-13">
          <mxGeometry y="78" width="140" height="26" as="geometry" />
        </mxCell>
        <mxCell id="e3m_MHc_dkyIpt8xtR-b-17" value="GpEI" style="text;strokeColor=none;fillColor=none;align=center;verticalAlign=top;spacingLeft=4;spacingRight=4;overflow=hidden;rotatable=0;points=[[0,0.5],[1,0.5]];portConstraint=eastwest;" vertex="1" parent="e3m_MHc_dkyIpt8xtR-b-13">
          <mxGeometry y="104" width="140" height="26" as="geometry" />
        </mxCell>
        <mxCell id="e3m_MHc_dkyIpt8xtR-b-18" value="GpTD" style="text;strokeColor=none;fillColor=none;align=center;verticalAlign=top;spacingLeft=4;spacingRight=4;overflow=hidden;rotatable=0;points=[[0,0.5],[1,0.5]];portConstraint=eastwest;" vertex="1" parent="e3m_MHc_dkyIpt8xtR-b-13">
          <mxGeometry y="130" width="140" height="26" as="geometry" />
        </mxCell>
        <mxCell id="e3m_MHc_dkyIpt8xtR-b-19" value="GpTP" style="text;strokeColor=none;fillColor=none;align=center;verticalAlign=top;spacingLeft=4;spacingRight=4;overflow=hidden;rotatable=0;points=[[0,0.5],[1,0.5]];portConstraint=eastwest;" vertex="1" parent="e3m_MHc_dkyIpt8xtR-b-13">
          <mxGeometry y="156" width="140" height="26" as="geometry" />
        </mxCell>
        <mxCell id="e3m_MHc_dkyIpt8xtR-b-20" value="GpTPL" style="text;strokeColor=none;fillColor=none;align=center;verticalAlign=top;spacingLeft=4;spacingRight=4;overflow=hidden;rotatable=0;points=[[0,0.5],[1,0.5]];portConstraint=eastwest;" vertex="1" parent="e3m_MHc_dkyIpt8xtR-b-13">
          <mxGeometry y="182" width="140" height="26" as="geometry" />
        </mxCell>
        <mxCell id="e3m_MHc_dkyIpt8xtR-b-21" value="GpPRJ" style="text;strokeColor=none;fillColor=none;align=center;verticalAlign=top;spacingLeft=4;spacingRight=4;overflow=hidden;rotatable=0;points=[[0,0.5],[1,0.5]];portConstraint=eastwest;" vertex="1" parent="e3m_MHc_dkyIpt8xtR-b-13">
          <mxGeometry y="208" width="140" height="26" as="geometry" />
        </mxCell>
        <mxCell id="e3m_MHc_dkyIpt8xtR-b-22" value="GpCMSer" style="text;strokeColor=none;fillColor=none;align=center;verticalAlign=top;spacingLeft=4;spacingRight=4;overflow=hidden;rotatable=0;points=[[0,0.5],[1,0.5]];portConstraint=eastwest;" vertex="1" parent="e3m_MHc_dkyIpt8xtR-b-13">
          <mxGeometry y="234" width="140" height="26" as="geometry" />
        </mxCell>
        <mxCell id="e3m_MHc_dkyIpt8xtR-b-23" value="GpPRJSer" style="text;strokeColor=none;fillColor=none;align=center;verticalAlign=top;spacingLeft=4;spacingRight=4;overflow=hidden;rotatable=0;points=[[0,0.5],[1,0.5]];portConstraint=eastwest;" vertex="1" parent="e3m_MHc_dkyIpt8xtR-b-13">
          <mxGeometry y="260" width="140" height="26" as="geometry" />
        </mxCell>
        <mxCell id="e3m_MHc_dkyIpt8xtR-b-24" value="GpTPLSer" style="text;strokeColor=none;fillColor=none;align=center;verticalAlign=top;spacingLeft=4;spacingRight=4;overflow=hidden;rotatable=0;points=[[0,0.5],[1,0.5]];portConstraint=eastwest;" vertex="1" parent="e3m_MHc_dkyIpt8xtR-b-13">
          <mxGeometry y="286" width="140" height="26" as="geometry" />
        </mxCell>
        <mxCell id="e3m_MHc_dkyIpt8xtR-b-25" value="GpTPSer" style="text;strokeColor=none;fillColor=none;align=center;verticalAlign=top;spacingLeft=4;spacingRight=4;overflow=hidden;rotatable=0;points=[[0,0.5],[1,0.5]];portConstraint=eastwest;" vertex="1" parent="e3m_MHc_dkyIpt8xtR-b-13">
          <mxGeometry y="312" width="140" height="26" as="geometry" />
        </mxCell>
        <mxCell id="e3m_MHc_dkyIpt8xtR-b-26" value="GpTDSer" style="text;strokeColor=none;fillColor=none;align=center;verticalAlign=top;spacingLeft=4;spacingRight=4;overflow=hidden;rotatable=0;points=[[0,0.5],[1,0.5]];portConstraint=eastwest;" vertex="1" parent="e3m_MHc_dkyIpt8xtR-b-13">
          <mxGeometry y="338" width="140" height="26" as="geometry" />
        </mxCell>
        <mxCell id="e3m_MHc_dkyIpt8xtR-b-27" value="GpEISer" style="text;strokeColor=none;fillColor=none;align=center;verticalAlign=top;spacingLeft=4;spacingRight=4;overflow=hidden;rotatable=0;points=[[0,0.5],[1,0.5]];portConstraint=eastwest;" vertex="1" parent="e3m_MHc_dkyIpt8xtR-b-13">
          <mxGeometry y="364" width="140" height="26" as="geometry" />
        </mxCell>
        <mxCell id="e3m_MHc_dkyIpt8xtR-b-28" value="" style="endArrow=none;html=1;exitX=0.989;exitY=0.181;exitDx=0;exitDy=0;exitPerimeter=0;entryX=0;entryY=0.5;entryDx=0;entryDy=0;" edge="1" parent="1">
          <mxGeometry width="50" height="50" relative="1" as="geometry">
            <mxPoint x="98.45999999999981" y="783.5300000000002" as="sourcePoint" />
            <mxPoint x="610" y="785" as="targetPoint" />
          </mxGeometry>
        </mxCell>
        <mxCell id="e3m_MHc_dkyIpt8xtR-b-29" value="0n" style="text;html=1;align=center;verticalAlign=middle;resizable=0;points=[];autosize=1;" vertex="1" parent="1">
          <mxGeometry x="105" y="760" width="30" height="20" as="geometry" />
        </mxCell>
        <mxCell id="e3m_MHc_dkyIpt8xtR-b-30" value="service" style="swimlane;fontStyle=0;childLayout=stackLayout;horizontal=1;startSize=26;fillColor=none;horizontalStack=0;resizeParent=1;resizeParentMax=0;resizeLast=0;collapsible=1;marginBottom=0;align=center;" vertex="1" parent="1">
          <mxGeometry x="-720" y="513" width="140" height="246" as="geometry" />
        </mxCell>
        <mxCell id="e3m_MHc_dkyIpt8xtR-b-31" value="&#xa;NbGpCM&#xa;&#xa;NbGpEI&#xa;&#xa;NBGpTD&#xa;&#xa;NbGpTP&#xa;&#xa;NbGpTPL&#xa;&#xa;NBGpPRJ&#xa;&#xa;HEqTD" style="text;strokeColor=none;fillColor=none;align=center;verticalAlign=top;spacingLeft=4;spacingRight=4;overflow=hidden;rotatable=0;points=[[0,0.5],[1,0.5]];portConstraint=eastwest;" vertex="1" parent="e3m_MHc_dkyIpt8xtR-b-30">
          <mxGeometry y="26" width="140" height="220" as="geometry" />
        </mxCell>
        <mxCell id="e3m_MHc_dkyIpt8xtR-b-33" value="" style="rounded=0;whiteSpace=wrap;html=1;fillColor=none;" vertex="1" parent="1">
          <mxGeometry x="243.75" y="723" width="202.5" height="110" as="geometry" />
        </mxCell>
        <mxCell id="e3m_MHc_dkyIpt8xtR-b-36" value="0n" style="text;html=1;strokeColor=none;fillColor=none;align=center;verticalAlign=middle;whiteSpace=wrap;rounded=0;" vertex="1" parent="1">
          <mxGeometry x="340" y="530" width="40" height="20" as="geometry" />
        </mxCell>
        <mxCell id="e3m_MHc_dkyIpt8xtR-b-41" value="0n" style="text;html=1;align=center;verticalAlign=middle;resizable=0;points=[];autosize=1;" vertex="1" parent="1">
          <mxGeometry x="690" y="703" width="30" height="20" as="geometry" />
        </mxCell>
        <mxCell id="e3m_MHc_dkyIpt8xtR-b-43" value="etape" style="swimlane;fontStyle=0;childLayout=stackLayout;horizontal=1;startSize=26;fillColor=none;horizontalStack=0;resizeParent=1;resizeParentMax=0;resizeLast=0;collapsible=1;marginBottom=0;strokeWidth=1;fontColor=#000000;align=center;" vertex="1" parent="1">
          <mxGeometry x="1000" y="1010" width="140" height="130" as="geometry" />
        </mxCell>
        <mxCell id="e3m_MHc_dkyIpt8xtR-b-44" value="code_etape" style="text;strokeColor=none;fillColor=none;align=center;verticalAlign=top;spacingLeft=4;spacingRight=4;overflow=hidden;rotatable=0;points=[[0,0.5],[1,0.5]];portConstraint=eastwest;fontStyle=4" vertex="1" parent="e3m_MHc_dkyIpt8xtR-b-43">
          <mxGeometry y="26" width="140" height="26" as="geometry" />
        </mxCell>
        <mxCell id="e3m_MHc_dkyIpt8xtR-b-45" value="vet" style="text;strokeColor=none;fillColor=none;align=center;verticalAlign=top;spacingLeft=4;spacingRight=4;overflow=hidden;rotatable=0;points=[[0,0.5],[1,0.5]];portConstraint=eastwest;fontStyle=4" vertex="1" parent="e3m_MHc_dkyIpt8xtR-b-43">
          <mxGeometry y="52" width="140" height="26" as="geometry" />
        </mxCell>
        <mxCell id="e3m_MHc_dkyIpt8xtR-b-46" value="libelle_vet" style="text;strokeColor=none;fillColor=none;align=center;verticalAlign=top;spacingLeft=4;spacingRight=4;overflow=hidden;rotatable=0;points=[[0,0.5],[1,0.5]];portConstraint=eastwest;" vertex="1" parent="e3m_MHc_dkyIpt8xtR-b-43">
          <mxGeometry y="78" width="140" height="26" as="geometry" />
        </mxCell>
        <mxCell id="e3m_MHc_dkyIpt8xtR-b-47" value="HOblig" style="text;strokeColor=none;fillColor=none;align=center;verticalAlign=top;spacingLeft=4;spacingRight=4;overflow=hidden;rotatable=0;points=[[0,0.5],[1,0.5]];portConstraint=eastwest;" vertex="1" parent="e3m_MHc_dkyIpt8xtR-b-43">
          <mxGeometry y="104" width="140" height="26" as="geometry" />
        </mxCell>
        <mxCell id="e3m_MHc_dkyIpt8xtR-b-49" style="edgeStyle=orthogonalEdgeStyle;rounded=0;orthogonalLoop=1;jettySize=auto;html=1;exitX=0;exitY=0.5;exitDx=0;exitDy=0;startArrow=none;startFill=0;endArrow=none;endFill=0;" edge="1" parent="1" source="e3m_MHc_dkyIpt8xtR-b-48" target="sm2VLhsxw18HSgWIhHCW-71">
          <mxGeometry relative="1" as="geometry">
            <Array as="points">
              <mxPoint x="760" y="1810" />
              <mxPoint x="760" y="1743" />
              <mxPoint x="810" y="1743" />
            </Array>
          </mxGeometry>
        </mxCell>
        <mxCell id="e3m_MHc_dkyIpt8xtR-b-50" style="edgeStyle=orthogonalEdgeStyle;rounded=0;orthogonalLoop=1;jettySize=auto;html=1;exitX=1;exitY=0.5;exitDx=0;exitDy=0;startArrow=none;startFill=0;endArrow=none;endFill=0;" edge="1" parent="1" source="e3m_MHc_dkyIpt8xtR-b-48" target="sm2VLhsxw18HSgWIhHCW-71">
          <mxGeometry relative="1" as="geometry">
            <Array as="points">
              <mxPoint x="920" y="1810" />
              <mxPoint x="920" y="1743" />
              <mxPoint x="870" y="1743" />
            </Array>
          </mxGeometry>
        </mxCell>
        <mxCell id="e3m_MHc_dkyIpt8xtR-b-48" value="ue_pere" style="ellipse;whiteSpace=wrap;html=1;fillColor=none;" vertex="1" parent="1">
          <mxGeometry x="780" y="1790" width="120" height="40" as="geometry" />
        </mxCell>
        <mxCell id="e3m_MHc_dkyIpt8xtR-b-51" value="01" style="text;html=1;align=center;verticalAlign=middle;resizable=0;points=[];autosize=1;" vertex="1" parent="1">
          <mxGeometry x="775" y="1720" width="30" height="20" as="geometry" />
        </mxCell>
        <mxCell id="e3m_MHc_dkyIpt8xtR-b-52" value="0n" style="text;html=1;align=center;verticalAlign=middle;resizable=0;points=[];autosize=1;" vertex="1" parent="1">
          <mxGeometry x="875" y="1720" width="30" height="20" as="geometry" />
        </mxCell>
      </root>
    </mxGraphModel>
  </diagram>
</mxfile>
